<?xml version="1.0" encoding="UTF-8"?>
<!DOCTYPE svg PUBLIC "-//W3C//DTD SVG 1.1//EN" "http://www.w3.org/Graphics/SVG/1.1/DTD/svg11.dtd">
<svg xmlns="http://www.w3.org/2000/svg" version="1.1" width="32px" height="32px" style="shape-rendering:geometricPrecision; text-rendering:geometricPrecision; image-rendering:optimizeQuality; fill-rule:evenodd; clip-rule:evenodd" xmlns:xlink="http://www.w3.org/1999/xlink">
<g><path style="opacity:1" fill="#c9a22c" d="M 26.5,7.5 C 22.819,6.22284 18.9857,5.22284 15,4.5C 11.1963,5.65424 7.36295,6.65424 3.5,7.5C 6.38086,3.39281 10.3809,1.39281 15.5,1.5C 18.7946,1.29516 21.7946,2.12849 24.5,4C 25.8228,4.81595 26.4894,5.98261 26.5,7.5 Z"/></g>
<g><path style="opacity:1" fill="#d0f593" d="M 26.5,7.5 C 27.5,7.83333 28.1667,8.5 28.5,9.5C 22.4527,9.44409 17.9527,12.1108 15,17.5C 12.4666,12.7957 8.63326,9.79575 3.5,8.5C 3.5,8.16667 3.5,7.83333 3.5,7.5C 7.36295,6.65424 11.1963,5.65424 15,4.5C 18.9857,5.22284 22.819,6.22284 26.5,7.5 Z"/></g>
<g><path style="opacity:1" fill="#caa729" d="M 14.5,7.5 C 17.0838,8.0483 18.0838,9.71497 17.5,12.5C 12.5162,12.8558 11.5162,11.1891 14.5,7.5 Z"/></g>
<g><path style="opacity:0.999" fill="#69b744" d="M 3.5,8.5 C 8.63326,9.79575 12.4666,12.7957 15,17.5C 17.9527,12.1108 22.4527,9.44409 28.5,9.5C 31.2158,24.6192 24.8825,31.1192 9.5,29C 0.994662,23.7858 -1.00534,16.9525 3.5,8.5 Z"/></g>
<g><path style="opacity:1" fill="#cdf997" d="M 4.5,11.5 C 10.8428,13.5151 13.6761,17.8484 13,24.5C 10.9565,22.792 9.28987,20.792 8,18.5C 8.12116,21.6643 9.62116,24.1643 12.5,26C 9.14954,25.5532 6.64954,23.7199 5,20.5C 4.50204,17.5184 4.33537,14.5184 4.5,11.5 Z"/></g>
<g><path style="opacity:1" fill="#cdf997" d="M 22.5,12.5 C 23.8333,12.5 25.1667,12.5 26.5,12.5C 27.1823,18.1376 25.1823,22.471 20.5,25.5C 20.1667,25.3333 19.8333,25.1667 19.5,25C 21.3318,23.5114 22.1652,21.678 22,19.5C 20.9542,21.0905 19.7875,22.5905 18.5,24C 17.3999,24.4317 16.7332,23.9317 16.5,22.5C 17.4901,18.5131 19.4901,15.1797 22.5,12.5 Z"/></g>
</svg>
